# xmcd CD database file
# Copyright (C) 1997 Ti Kan
#
# Track frame offsets:
#  182
#  30732
#  71432
#  97207
#  166082
#  190007
#  213432
#  238120
#  261075
#  272020
#  316757
#
# Disc length: 4444 seconds
#
# Revision: 1
# Processed by: cddbd v1.4b41PL1 Copyright (c) Steve Scherf et al.
# Submitted via: CDWizzard Release:4.22
#
DISCID=95115a0b
DTITLE=PAT MEHTENY GROUP - THE ROAD TO YOU
DYEAR=1900
DGENRE=
TTITLE0=HAVE YOU HEARD
TTITLE1=FIRST CIRCLE
TTITLE2=THE ROAD TO YOU
TTITLE3=HALF LIFE OF ABSOLUTION
TTITLE4=LAST TRAIN HOME
TTITLE5=BETTER DAYS AHEAD
TTITLE6=NAKED MOON
TTITLE7=BEAT 70
TTITLE8=LETTER FROM HOME
TTITLE9=THIRD WIND
TTITLE10=SOLO FROM 'MORE TRAVEL'
EXTD=
EXTT0=
EXTT1=
EXTT2=
EXTT3=
EXTT4=
EXTT5=
EXTT6=
EXTT7=
EXTT8=
EXTT9=
EXTT10=
PLAYORDER=
